<svg xmlns="http://www.w3.org/2000/svg" xmlns:xlink="http://www.w3.org/1999/xlink" id="Capa_1" x="0" y="0" version="1.1" viewBox="0 0 512 512" xml:space="preserve" style="enable-background:new 0 0 512 512"><g><path style="fill:#4a94cc" d="M106.107,321.78v-12.882h23.259v5.639c0,1.423,1.153,2.576,2.576,2.576h5.907 c1.423,0,2.576-1.153,2.576-2.576c0-10.384-1.146-16.234-14.718-16.234c-21.998,0-31.006-2.633-31.006,14.785 c0,22.339,3,19.788,34.931,19.788v14.074l-23.224,0.057c0-10.406,1.181-9.232-9.146-9.173c-1.417,0.008-2.56,1.159-2.56,2.576 c0,11.735,1.386,17.361,14.779,17.361c29.561,0,31.62,1.947,31.62-21.189C141.099,318.609,131.148,321.78,106.107,321.78z"/><path style="fill:#4a94cc" d="M352.606,298.304h-45.293c-1.423,0-2.576,1.153-2.576,2.576v5.443c0,1.423,1.153,2.576,2.576,2.576 h16.468v46.298c0,1.423,1.153,2.576,2.576,2.576h7.155c1.423,0,2.576-1.153,2.576-2.576v-46.298h16.518 c1.423,0,2.576-1.153,2.576-2.576v-5.443C355.182,299.457,354.029,298.304,352.606,298.304z"/><path style="fill:#4a94cc" d="M369.531,321.78v-12.882h23.325v5.639c0,1.423,1.153,2.576,2.576,2.576h5.835 c1.423,0,2.576-1.153,2.576-2.576c0-18.962-7.966-16.234-31.166-16.234c-10.993,0-14.521,3.593-14.521,14.785v5 c0,11.195,3.528,14.788,14.521,14.788h20.308v14.072h-25.283l0.005-6.525c0.001-0.684-0.271-1.339-0.754-1.823 s-1.139-0.755-1.822-0.755h-6.615c-1.423,0-2.576,1.153-2.576,2.576v2.509c-0.01,17.758,9.622,14.841,33.943,14.841 c15.373,0,14.652-7.525,14.652-21.189C404.535,318.672,394.749,321.78,369.531,321.78z"/><path style="fill:#4a94cc" d="M179.467,298.304h-30.701c-1.423,0-2.576,1.153-2.576,2.576v54.317c0,1.423,1.153,2.576,2.576,2.576 h7.224c1.423,0,2.576-1.153,2.576-2.576v-19.413h20.902c9.154,0,13.418-3.951,13.418-12.436V310.7 C192.886,302.242,188.622,298.304,179.467,298.304z M158.566,325.252V308.58c21.015,0,21.896-1.138,21.896,4.423 c0,10.977,0.934,12.25-4.708,12.25L158.566,325.252L158.566,325.252z"/><path style="fill:#4a94cc" d="M234.792,298.233h-22.8c-11.032,0-14.756,3.743-14.756,14.834v29.865 c0,11.095,3.724,14.839,14.756,14.839c42.444,0,37.363,5.231,37.363-44.705C249.354,301.837,245.816,298.233,234.792,298.233z M209.632,346.884v-38.019h27.512v38.019H209.632z"/><path style="fill:#4a94cc" d="M304.97,353.234l-20.531-17.451c6.947,0,17.711,0.992,17.711-12.436v-12.648 c0-8.456-4.261-12.395-13.41-12.395h-30.642c-1.423,0-2.576,1.153-2.576,2.576v54.317c0,1.423,1.153,2.576,2.576,2.576h7.152 c1.423,0,2.576-1.153,2.576-2.576v-19.413h0.83c24.193,23.082,22.642,21.989,24.078,21.989c10.969,0,12.184,0.494,12.985-1.688 C306.091,355.071,305.793,353.933,304.97,353.234z M285.003,325.439h-17.177V308.58h17.177c3.531,0,4.631,0.593,4.631,4.301 C289.634,324.249,290.547,325.439,285.003,325.439z"/></g><g><path style="fill:#ea473b" d="M148.318,162.305c124.146-0.072,116.369,0.549,117.669-1.506 c16.086-25.451,16.126-24.514,14.95-26.647c-0.543-0.986-1.581-1.599-2.707-1.599c-124.182,0-116.402-0.619-117.7,1.445 c-15.948,25.349-16.099,24.578-14.918,26.711C146.152,161.687,147.183,162.305,148.318,162.305z"/><path style="fill:#ea473b" d="M311.472,135.625c-0.566-0.895-1.552-1.439-2.612-1.439c-2.503,0,2.458-6.571-76.062,117.457 h-83.201l19.056-29.801c54.105,0,51.364,0.546,52.62-1.437l14.937-23.589c1.301-2.055-0.179-4.744-2.611-4.744 c-116.445,0-109.308-0.617-110.608,1.44l-14.913,23.596c-1.298,2.055,0.182,4.743,2.614,4.742l22.05-0.007l-34.66,54.802 c-1.3,2.054,0.181,4.743,2.612,4.743c158.923,0,148.987,0.569,150.273-1.471l57.912-91.937l21.329,33.822 c-17.632,0-18.027-0.48-19.24,1.44l-14.911,23.609c-1.297,2.055,0.182,4.741,2.613,4.741h50.358 c19.172,30.327,18.18,29.774,20.525,29.774c30.801,0,29.955,0.534,31.13-1.599C401.989,277.393,406.306,285.669,311.472,135.625z"/></g><g><path style="fill:#d82b27" d="M165.999,157.568c15.8-25.112,15.123-25.015,17.445-25.015h-20.298 c-2.276,0-1.312-0.628-17.445,25.015c-1.291,2.051,0.183,4.737,2.618,4.737l20.21-0.012 C166.11,162.224,164.737,159.573,165.999,157.568z"/><path style="fill:#d82b27" d="M130.941,221.842c-2.43-0.038-3.845-2.71-2.566-4.735c16.22-25.663,15.255-25.035,17.526-25.035 c-21.777,0-21.698-0.48-22.911,1.44c-16.05,25.394-16.184,24.603-15.007,26.739C109.158,222.382,109.353,221.849,130.941,221.842z"/></g><path style="fill:#eae8e8" d="M256.001,0.001C114.615,0.001,0,114.615,0,256c0,141.383,114.615,255.999,256.001,255.999	C397.385,511.999,512,397.383,512,256C512,114.615,397.385,0.001,256.001,0.001z M255.999,472.563	c-119.603,0-216.562-96.959-216.562-216.563S136.395,39.437,255.999,39.437S472.563,136.396,472.563,256	S375.602,472.563,255.999,472.563z"/><g><path style="fill:#d3d1d1" d="M266.301,472.314C390.432,478.13,493.168,379.125,493.168,256 c0-123.108-102.718-222.131-226.867-216.314C381.12,45.065,472.563,139.85,472.563,256S381.12,466.935,266.301,472.314z"/><path style="fill:#d3d1d1" d="M20.605,256c0-137.932,109.092-250.366,245.698-255.776C120.315-5.556,0,111.132,0,256 c0,144.855,120.302,261.556,266.303,255.776C129.697,506.366,20.605,393.931,20.605,256z"/></g><g><path style="fill:#d82b27" d="M118.378,276.643c0.001-0.002,28.849-45.614,28.849-45.614c5.455-8.625-0.354-9.154-1.219-9.185 l-13.272,0.004L98.08,276.643c-1.3,2.054,0.181,4.743,2.612,4.743h20.298C118.56,281.386,117.078,278.698,118.378,276.643z"/><path style="fill:#d82b27" d="M257.552,244.604c0.001-0.001,61.45-97.064,61.45-97.065c-8.004-12.664-7.898-13.352-10.142-13.353 c-2.503,0,2.458-6.571-76.062,117.457h12.985C247.822,251.561,253.649,250.769,257.552,244.604z"/><path style="fill:#d82b27" d="M373.942,258.894c-0.001-0.001-0.001-0.001-0.001-0.002c-4.409-6.975-10.936-7.295-11.936-7.302 h-12.978c19.172,30.327,18.18,29.774,20.525,29.774h20.298C387.578,281.364,388.315,281.629,373.942,258.894z"/><path style="fill:#d82b27" d="M344.636,212.497c-4.125-6.539-15.155-24.022-19.521-30.944c-6.127-9.713-10.872-2.116-10.872-2.116 l0,0l-5.366,8.54l21.329,33.822c-17.632,0-18.027-0.48-19.24,1.44l-14.911,23.609c-1.297,2.055,0.182,4.741,2.613,4.741h20.298 c-2.43,0-3.911-2.685-2.613-4.741c16.22-25.682,15.252-25.049,17.524-25.049h9.385C349.776,221.8,344.656,212.533,344.636,212.497z"/></g></svg>